<svg width="14" height="14" viewBox="0 0 14 14" fill="none" xmlns="http://www.w3.org/2000/svg">
<path fill-rule="evenodd" clip-rule="evenodd" d="M3.00004 1.66671H11C11.7364 1.66671 12.3334 2.26366 12.3334 3.00004V11C12.3334 11.7364 11.7364 12.3334 11 12.3334H3.00004C2.26366 12.3334 1.66671 11.7364 1.66671 11V3.00004C1.66671 2.26366 2.26366 1.66671 3.00004 1.66671ZM0.333374 3.00004C0.333374 1.52728 1.52728 0.333374 3.00004 0.333374H11C12.4728 0.333374 13.6667 1.52728 13.6667 3.00004V11C13.6667 12.4728 12.4728 13.6667 11 13.6667H3.00004C1.52728 13.6667 0.333374 12.4728 0.333374 11V3.00004ZM4.33311 3.66645C3.96492 3.66645 3.66645 3.96492 3.66645 4.33311V9.66645C3.66645 10.0346 3.96492 10.3331 4.33311 10.3331C4.7013 10.3331 4.99978 10.0346 4.99978 9.66645V5.92426L9.11145 10.0359C9.23096 10.2151 9.43492 10.3331 9.66645 10.3331C10.0346 10.3331 10.3331 10.0346 10.3331 9.66645V4.33311C10.3331 3.96492 10.0346 3.66645 9.66645 3.66645C9.29826 3.66645 8.99978 3.96492 8.99978 4.33311V8.03864L4.92311 3.96197C4.89085 3.92972 4.85612 3.90146 4.81952 3.8772C4.69788 3.74748 4.52496 3.66645 4.33311 3.66645Z" fill="#ACB3BD"/>
</svg>
