<svg width="20" height="20" viewBox="0 0 20 20" fill="none" xmlns="http://www.w3.org/2000/svg">
<path fill-rule="evenodd" clip-rule="evenodd" d="M4.50041 2.6672H15.5004C16.5129 2.6672 17.3337 3.48801 17.3337 4.50053V15.5005C17.3337 16.5131 16.5129 17.3339 15.5004 17.3339H4.50041C3.48788 17.3339 2.66707 16.5131 2.66707 15.5005V4.50053C2.66707 3.48801 3.48788 2.6672 4.50041 2.6672ZM0.83374 4.50053C0.83374 2.47548 2.47536 0.833862 4.50041 0.833862H15.5004C17.5255 0.833862 19.1671 2.47549 19.1671 4.50053V15.5005C19.1671 17.5256 17.5254 19.1672 15.5004 19.1672H4.50041C2.47536 19.1672 0.83374 17.5256 0.83374 15.5005V4.50053ZM6.33446 4.73041C5.8282 4.73041 5.41779 5.14082 5.41779 5.64708C5.41779 6.15334 5.8282 6.56375 6.33446 6.56375L13.6678 6.56375C14.1741 6.56375 14.5845 6.15334 14.5845 5.64708C14.5845 5.14082 14.1741 4.73041 13.6678 4.73041L6.33446 4.73041ZM5.41779 10.0012C5.41779 9.49498 5.8282 9.08458 6.33446 9.08458L13.6678 9.08458C14.1741 9.08458 14.5845 9.49498 14.5845 10.0012C14.5845 10.5075 14.1741 10.9179 13.6678 10.9179L6.33446 10.9179C5.8282 10.9179 5.41779 10.5075 5.41779 10.0012ZM6.33446 13.4387C5.8282 13.4387 5.41779 13.8492 5.41779 14.3554C5.41779 14.8617 5.8282 15.2721 6.33446 15.2721L9.08446 15.2721C9.59072 15.2721 10.0011 14.8617 10.0011 14.3554C10.0011 13.8492 9.59072 13.4387 9.08446 13.4387H6.33446Z" fill="#6F3E00"/>
</svg>
