<svg width="19" height="18" viewBox="0 0 19 18" fill="none" xmlns="http://www.w3.org/2000/svg">
<path d="M14.1201 13.9822V14.4405C14.1201 15.2874 13.8074 16.0982 13.2397 16.7237C13.0607 16.9208 12.8158 17.0202 12.5699 17.0202C12.353 17.0202 12.1361 16.9424 11.9634 16.7852C11.5937 16.4498 11.5657 15.8786 11.901 15.5089C12.1668 15.2169 12.3132 14.8364 12.3132 14.4396V13.9812C12.3132 12.8568 11.5567 11.8833 10.4729 11.6149C10.3238 11.5769 10.1673 11.5968 10.0417 11.6682C8.36315 12.5902 6.31222 12.5856 4.64814 11.6727C4.51527 11.5968 4.35798 11.5769 4.21065 11.6158C3.12687 11.8842 2.3703 12.8578 2.3703 13.9822V14.4405C2.3703 14.8364 2.51673 15.216 2.78247 15.5098C3.11782 15.8795 3.08982 16.4516 2.72013 16.7869C2.34863 17.1214 1.77824 17.0943 1.4429 16.7246C0.875248 16.0982 0.5625 15.2874 0.5625 14.4413V13.9831C0.5625 12.0262 1.88311 10.3313 3.77497 9.86127C4.36522 9.71664 5.00336 9.7999 5.52672 10.0928C6.64394 10.7074 8.03235 10.7119 9.16494 10.0882C9.68107 9.8008 10.3192 9.71574 10.9095 9.86127C12.7995 10.3304 14.1201 12.0253 14.1201 13.9822ZM15.4271 9.86038C14.9436 9.74288 14.4518 10.0348 14.3325 10.5193C14.2132 11.0038 14.5079 11.4947 14.9924 11.6149C16.0762 11.8833 16.8327 12.8568 16.8327 13.9812V14.4396C16.8327 14.8355 16.6863 15.216 16.4205 15.5089C16.0852 15.8786 16.1132 16.4498 16.4829 16.7852C16.6556 16.9424 16.8734 17.0202 17.0894 17.0202C17.3353 17.0202 17.5802 16.9208 17.7592 16.7237C18.3269 16.0982 18.6396 15.2865 18.6396 14.4405V13.9822C18.6396 12.0253 17.319 10.3304 15.4271 9.86038ZM2.82137 5.2695C2.82137 2.77745 4.84881 0.75 7.34086 0.75C9.83292 0.75 11.8604 2.77745 11.8604 5.2695C11.8604 7.76155 9.83292 9.789 7.34086 9.789C4.84881 9.789 2.82137 7.76155 2.82137 5.2695ZM4.62917 5.2695C4.62917 6.76455 5.84581 7.9812 7.34086 7.9812C8.83592 7.9812 10.0526 6.76455 10.0526 5.2695C10.0526 3.77445 8.83592 2.5578 7.34086 2.5578C5.84581 2.5578 4.62917 3.77445 4.62917 5.2695ZM16.3799 5.2695C16.3799 2.99348 14.6796 1.06721 12.4244 0.785198C11.9282 0.728253 11.4771 1.07448 11.4156 1.56982C11.3542 2.06516 11.7049 2.51708 12.2011 2.57854C13.5534 2.74757 14.5729 3.90371 14.5729 5.2695C14.5729 6.09657 14.2023 6.86853 13.5561 7.38647C13.1665 7.69922 13.1041 8.26769 13.416 8.65636C13.594 8.87963 13.8571 8.99533 14.1219 8.99533C14.3199 8.99533 14.5196 8.93027 14.6869 8.79649C15.7625 7.93417 16.3799 6.64794 16.3799 5.2695Z" fill="#6F3E00"/>
</svg>
