<svg width="14" height="14" viewBox="0 0 14 14" fill="none" xmlns="http://www.w3.org/2000/svg">
<path fill-rule="evenodd" clip-rule="evenodd" d="M3.33342 2.33337C3.33342 1.96518 3.63189 1.66671 4.00008 1.66671H10.6667C11.0349 1.66671 11.3334 1.96518 11.3334 2.33337V3.68019C11.0472 3.71057 10.768 3.79202 10.5094 3.92135L7.33342 5.50933L4.15746 3.92135C3.8988 3.79202 3.61963 3.71057 3.33342 3.68019V2.33337ZM2.00008 3.92076V2.33337C2.00008 1.2288 2.89551 0.333374 4.00008 0.333374H10.6667C11.7713 0.333374 12.6667 1.2288 12.6667 2.33337V3.92076C13.4573 4.31672 14.0001 5.13434 14.0001 6.07873V11C14.0001 12.4728 12.8062 13.6667 11.3334 13.6667H3.33341C1.86066 13.6667 0.666748 12.4728 0.666748 11V6.07873C0.666748 5.13434 1.20949 4.31672 2.00008 3.92076ZM12.6667 11V6.07873C12.6667 5.48299 12.1838 5.00004 11.5881 5.00004C11.4206 5.00004 11.2554 5.03903 11.1057 5.11392L7.9297 6.7019C7.55433 6.88958 7.1125 6.88958 6.73713 6.7019L3.56118 5.11392C3.41139 5.03903 3.24623 5.00004 3.07877 5.00004C2.48303 5.00004 2.00008 5.48299 2.00008 6.07873V11C2.00008 11.7364 2.59704 12.3334 3.33341 12.3334H11.3334C12.0698 12.3334 12.6667 11.7364 12.6667 11Z" fill="#ACB3BD"/>
</svg>
