<svg width="17" height="20" viewBox="0 0 17 20" fill="none" xmlns="http://www.w3.org/2000/svg">
<path fill-rule="evenodd" clip-rule="evenodd" d="M8.5 2.66646C5.71557 2.66646 3.45833 4.92369 3.45833 7.70813C3.45833 10.4926 5.71557 12.7498 8.5 12.7498C11.2844 12.7498 13.5417 10.4926 13.5417 7.70813V2.66646H8.5ZM8.5 0.83313H15.375V7.70813C15.375 11.5051 12.297 14.5831 8.5 14.5831C4.70304 14.5831 1.625 11.5051 1.625 7.70813C1.625 3.91117 4.70304 0.83313 8.5 0.83313ZM2.40199 18.5551C2.14418 18.8218 2.08333 19.0271 2.08333 19.1668H0.25C0.25 18.4206 0.599555 17.7819 1.08392 17.2809C1.56402 16.7843 2.21448 16.3789 2.94713 16.0584C4.41516 15.4161 6.37911 15.0418 8.5 15.0418C10.6209 15.0418 12.5848 15.4161 14.0529 16.0584C14.7855 16.3789 15.436 16.7843 15.9161 17.2809C16.4004 17.7819 16.75 18.4206 16.75 19.1668H14.9167C14.9167 19.0271 14.8558 18.8218 14.598 18.5551C14.3359 18.2841 13.9125 17.9981 13.318 17.738C12.1319 17.2191 10.4292 16.8752 8.5 16.8752C6.57081 16.8752 4.86809 17.2191 3.68197 17.738C3.08755 17.9981 2.66407 18.2841 2.40199 18.5551ZM6.43759 5.41682C6.94385 5.41682 7.35426 5.82723 7.35426 6.33349V7.47932C7.35426 7.98558 6.94385 8.39599 6.43759 8.39599C5.93133 8.39599 5.52092 7.98558 5.52092 7.47932V6.33349C5.52092 5.82723 5.93133 5.41682 6.43759 5.41682ZM10.5624 6.33349C10.5624 5.82723 10.152 5.41682 9.64574 5.41682C9.13948 5.41682 8.72908 5.82723 8.72908 6.33349V7.47932C8.72908 7.98558 9.13948 8.39599 9.64574 8.39599C10.152 8.39599 10.5624 7.98558 10.5624 7.47932V6.33349Z" fill="#6F3E00"/>
</svg>
