<svg width="19" height="20" viewBox="0 0 19 20" fill="none" xmlns="http://www.w3.org/2000/svg">
<path d="M4.875 4.95834C4.36874 4.95834 3.95833 5.36875 3.95833 5.87501C3.95833 6.38127 4.36874 6.79168 4.875 6.79168H9.45833C9.96459 6.79168 10.375 6.38127 10.375 5.87501C10.375 5.36875 9.96459 4.95834 9.45833 4.95834H4.875Z" fill="#6F3E00"/>
<path d="M3.95833 9.08334C3.95833 8.57708 4.36874 8.16668 4.875 8.16668H5.79167C6.29793 8.16668 6.70833 8.57708 6.70833 9.08334C6.70833 9.5896 6.29793 10 5.79167 10H4.875C4.36874 10 3.95833 9.5896 3.95833 9.08334Z" fill="#6F3E00"/>
<path d="M10.8333 11.375C10.8333 10.8687 11.2437 10.4583 11.75 10.4583C12.2563 10.4583 12.6667 10.8687 12.6667 11.375V12.75H13.5833C14.0896 12.75 14.5 13.1604 14.5 13.6667C14.5 14.1729 14.0896 14.5833 13.5833 14.5833H11.75C11.2437 14.5833 10.8333 14.1729 10.8333 13.6667V11.375Z" fill="#6F3E00"/>
<path fill-rule="evenodd" clip-rule="evenodd" d="M3.5 0.833344C1.98122 0.833344 0.75 2.06456 0.75 3.58334V15.5C0.75 17.0188 1.98122 18.25 3.5 18.25H9.03146C9.951 18.8307 11.0404 19.1667 12.2083 19.1667C15.499 19.1667 18.1667 16.499 18.1667 13.2083C18.1667 11.5186 17.4633 9.99314 16.3333 8.90878V3.58334C16.3333 2.06456 15.1021 0.833344 13.5833 0.833344H3.5ZM14.5 7.70666V3.58334C14.5 3.07708 14.0896 2.66668 13.5833 2.66668H3.5C2.99374 2.66668 2.58333 3.07708 2.58333 3.58334V15.5C2.58333 16.0063 2.99374 16.4167 3.5 16.4167H7.18667C6.59375 15.4906 6.25 14.3896 6.25 13.2083C6.25 9.91765 8.91764 7.25001 12.2083 7.25001C13.0204 7.25001 13.7945 7.41247 14.5 7.70666ZM8.08333 13.2083C8.08333 10.9302 9.93016 9.08334 12.2083 9.08334C14.4865 9.08334 16.3333 10.9302 16.3333 13.2083C16.3333 15.4865 14.4865 17.3333 12.2083 17.3333C9.93016 17.3333 8.08333 15.4865 8.08333 13.2083Z" fill="#6F3E00"/>
</svg>
